<?xml version="1.0" encoding="utf-8"?>
<!-- Generator: Adobe Illustrator 16.0.0, SVG Export Plug-In . SVG Version: 6.00 Build 0)  -->
<!DOCTYPE svg PUBLIC "-//W3C//DTD SVG 1.1//EN" "http://www.w3.org/Graphics/SVG/1.1/DTD/svg11.dtd">
<svg version="1.1" id="Layer_1" xmlns="http://www.w3.org/2000/svg" xmlns:xlink="http://www.w3.org/1999/xlink" x="0px" y="0px"
	 width="277.143px" height="199.286px" viewBox="0 0 277.143 199.286" enable-background="new 0 0 277.143 199.286"
	 xml:space="preserve">
<g>
	<g>
		<path fill="#010101" d="M7.38,24.81c0-8.399,5.039-14.917,13.558-14.917c6.679,0,10.719,3.839,11.479,9.118h-3.52
			c-0.68-3.56-3.52-5.999-8.039-5.999c-6.278,0-9.798,5.079-9.798,11.798c0,6.999,3.879,11.718,9.838,11.718
			c5.399,0,7.959-3.679,8.319-7.878h3.559c-0.04,2.839-1.399,6.039-3.439,8.039c-1.999,1.959-4.919,3-8.559,3
			C12.659,39.688,7.38,33.488,7.38,24.81z"/>
		<path fill="#010101" d="M36.82,10.532h3.6v25.276h14.997v3.319H36.82V10.532z"/>
		<path fill="#010101" d="M57.699,29.889V10.532h3.6v18.997c0,4.879,2.76,6.958,7.479,6.958c4.52,0,7.239-2.08,7.239-6.958V10.532
			h3.6v19.357c0,6.918-4.84,9.678-10.958,9.678C62.419,39.567,57.699,36.808,57.699,29.889z"/>
		<path fill="#010101" d="M8.46,58.532h4.599l9.279,23.756h0.079l9.199-23.756h4.679v28.595h-3.439V63.611h-0.08
			c0,0-0.76,2.24-1.279,3.6l-7.839,19.917h-2.76l-7.839-19.917c-0.56-1.44-1.279-3.6-1.279-3.6h-0.08v23.516H8.46V58.532z"/>
		<path fill="#010101" d="M44.419,69.89h0.08c1.239-2,3.399-3.679,6.158-3.679c0.601,0,0.92,0.08,1.32,0.24v3.12h-0.12
			c-0.48-0.16-0.8-0.2-1.439-0.2c-3.2,0-5.999,2.399-5.999,6.279v11.478h-3.24V66.451h3.24V69.89z"/>
		<path fill="#010101" d="M52.06,83.168h3.879v3.959H52.06V83.168z"/>
		<path fill="#010101" d="M66.739,58.532h4.599l9.279,23.756h0.079l9.199-23.756h4.679v28.595h-3.439V63.611h-0.08
			c0,0-0.76,2.24-1.279,3.6l-7.839,19.917h-2.76l-7.839-19.917c-0.56-1.44-1.279-3.6-1.279-3.6h-0.08v23.516h-3.239V58.532z"/>
		<path fill="#010101" d="M99.458,58.532h3.24v4h-3.24V58.532z M99.458,66.451h3.24v20.677h-3.24V66.451z"/>
		<path fill="#010101" d="M105.778,66.451h2.999v-6.519h3.24v6.519h3.999v2.64h-3.999v13.438c0,1.439,0.76,1.919,2.079,1.919
			c0.64,0,1.36-0.16,1.72-0.28h0.12v2.799c-0.76,0.16-1.64,0.28-2.6,0.28c-2.64,0-4.56-1.08-4.56-4V69.09h-2.999V66.451z"/>
		<path fill="#010101" d="M118.019,76.809c0-5.999,3.839-10.878,9.998-10.878c4.879,0,8.119,2.799,8.839,7.199h-3.279
			c-0.48-2.8-2.44-4.52-5.56-4.52c-4.399,0-6.679,3.64-6.679,8.199s2.279,8.159,6.679,8.159c3.359,0,5.359-1.919,5.639-5.119h3.2
			c-0.44,4.959-3.68,7.839-8.839,7.839C121.857,87.688,118.019,82.808,118.019,76.809z"/>
		<path fill="#010101" d="M143.178,69.17h0.08c1.479-1.959,3.559-3.199,6.559-3.199c4.319,0,6.959,2.359,6.959,6.639v14.518h-3.24
			V72.89c0-2.679-1.759-4.199-4.679-4.199c-3.279,0-5.679,2.32-5.679,5.719v12.718h-3.24V58.532h3.24V69.17z"/>
		<path fill="#010101" d="M8.46,106.532h13.357c5.039,0,8.438,3.16,8.438,7.839c0,3.479-1.52,5.959-4.959,7.079v0.12
			c2.92,1.04,3.84,3.04,4.119,7.279c0.32,4.599,0.8,5.759,1.32,6.119v0.16h-3.88c-0.6-0.52-0.72-1.6-1.039-6.399
			c-0.28-4.199-1.96-5.679-5.8-5.679H12.06v12.078h-3.6V106.532z M12.06,120.13h8.479c3.999,0,5.999-2,5.999-5.239
			c0-3.479-1.6-5.239-5.8-5.239H12.06V120.13z"/>
		<path fill="#010101" d="M46.818,132.248h-0.04c-1.24,1.6-3.359,3.279-6.879,3.279c-3.92,0-6.999-1.84-6.999-5.759
			c0-4.879,3.839-5.879,8.998-6.679c2.92-0.44,4.96-0.72,4.96-2.959c0-2.319-1.681-3.639-4.64-3.639
			c-3.359,0-5.039,1.439-5.159,4.559H33.94c0.12-4,2.759-6.999,8.238-6.999c4.399,0,7.639,1.64,7.639,6.559v9.838
			c0,1.68,0.4,2.6,2.199,2.2h0.12v2.359c-0.399,0.16-0.92,0.32-1.76,0.32C48.258,135.328,47.138,134.368,46.818,132.248z
			 M46.897,127.489v-3.52c-1.079,0.68-2.959,1.2-4.719,1.52c-3.239,0.6-5.839,1.16-5.839,4.199c0,2.759,2.159,3.359,4.279,3.359
			C44.938,133.048,46.897,129.888,46.897,127.489z"/>
		<path fill="#010101" d="M53.38,124.809c0-5.999,3.839-10.878,9.998-10.878c4.879,0,8.119,2.799,8.839,7.199h-3.279
			c-0.48-2.8-2.44-4.52-5.56-4.52c-4.399,0-6.679,3.64-6.679,8.199s2.279,8.159,6.679,8.159c3.359,0,5.359-1.919,5.639-5.119h3.2
			c-0.44,4.959-3.68,7.839-8.839,7.839C57.219,135.688,53.38,130.808,53.38,124.809z"/>
		<path fill="#010101" d="M78.539,117.17h0.08c1.479-1.959,3.559-3.199,6.559-3.199c4.319,0,6.959,2.359,6.959,6.639v14.518h-3.24
			V120.89c0-2.679-1.759-4.199-4.679-4.199c-3.279,0-5.679,2.32-5.679,5.719v12.718h-3.24v-28.595h3.24V117.17z"/>
		<path fill="#010101" d="M95.26,124.809c0-5.999,3.919-10.878,9.798-10.878c6.199,0,9.519,4.799,9.519,11.638H98.579
			c0.24,4.2,2.52,7.399,6.679,7.399c3,0,4.999-1.44,5.719-4.239h3.16c-0.96,4.439-4.199,6.959-8.879,6.959
			C98.938,135.688,95.26,130.808,95.26,124.809z M98.659,123.129h12.438c-0.2-4.119-2.319-6.639-6.039-6.639
			C101.219,116.491,99.139,119.37,98.659,123.129z"/>
		<path fill="#010101" d="M117.858,106.532h3.239v28.595h-3.239V106.532z"/>
		<path fill="#010101" d="M132.458,106.532h3.799l13.038,19.876c0.96,1.48,2.08,3.68,2.08,3.68h0.08v-23.556h3.359v28.595h-3.68
			l-13.118-19.917c-0.92-1.4-2.119-3.56-2.119-3.56h-0.08v23.476h-3.359V106.532z"/>
		<path fill="#010101" d="M158.538,124.809c0-5.999,3.839-10.878,9.998-10.878c6.199,0,9.958,4.879,9.958,10.878
			s-3.759,10.878-9.958,10.878C162.377,135.688,158.538,130.808,158.538,124.809z M175.175,124.809c0-4.559-2.239-8.199-6.639-8.199
			s-6.679,3.64-6.679,8.199s2.279,8.159,6.679,8.159S175.175,129.368,175.175,124.809z"/>
		<path fill="#010101" d="M185.058,132.408h-0.08v2.72h-3.24v-28.595h3.24v10.878h0.08c1.56-2.12,3.639-3.439,6.639-3.439
			c5.239,0,8.798,3.999,8.798,10.878c0,6.639-3.319,10.878-8.918,10.878C188.776,135.728,186.737,134.728,185.058,132.408z
			 M197.175,124.889c0-4.639-1.879-8.159-5.799-8.159c-4.52,0-6.599,3.68-6.599,8.159c0,4.639,2.159,8.119,6.559,8.119
			C195.296,133.008,197.175,129.568,197.175,124.889z"/>
		<path fill="#010101" d="M203.857,106.532h3.239v28.595h-3.239V106.532z"/>
		<path fill="#010101" d="M210.457,124.809c0-5.999,3.919-10.878,9.798-10.878c6.199,0,9.519,4.799,9.519,11.638h-15.997
			c0.24,4.2,2.52,7.399,6.679,7.399c3,0,4.999-1.44,5.719-4.239h3.16c-0.96,4.439-4.199,6.959-8.879,6.959
			C214.136,135.688,210.457,130.808,210.457,124.809z M213.856,123.129h12.438c-0.2-4.119-2.319-6.639-6.039-6.639
			C216.416,116.491,214.336,119.37,213.856,123.129z"/>
		<path fill="#FFFFFF" d="M17.298,170.37c3.6-2.08,5.8-3.479,5.8-6.799c0-3.359-2.32-5.639-5.959-5.639
			c-1.92,0-3.359,0.64-4.359,1.72c-1.08,1.16-1.56,2.68-1.56,5.479H7.7c0-3.52,0.92-5.759,2.6-7.438
			c1.76-1.72,4.319-2.56,7.118-2.56c5.56,0,9.159,3.519,9.159,8.398c0,5.279-3.6,7.039-7.999,9.479
			c-2.96,1.64-6.759,3.879-7.519,6.918h14.957v3.2H7.021C7.34,175.809,12.499,173.129,17.298,170.37z"/>
		<path fill="#FFFFFF" d="M39.538,170.37c3.6-2.08,5.8-3.479,5.8-6.799c0-3.359-2.32-5.639-5.959-5.639
			c-1.92,0-3.359,0.64-4.359,1.72c-1.08,1.16-1.56,2.68-1.56,5.479h-3.52c0-3.52,0.92-5.759,2.6-7.438
			c1.76-1.72,4.319-2.56,7.118-2.56c5.56,0,9.159,3.519,9.159,8.398c0,5.279-3.6,7.039-7.999,9.479
			c-2.96,1.64-6.759,3.879-7.519,6.918h14.957v3.2H29.261C29.58,175.809,34.739,173.129,39.538,170.37z"/>
		<path fill="#FFFFFF" d="M52.141,167.05h3.879v3.959h-3.879V167.05z M52.141,179.168h3.879v3.959h-3.879V179.168z"/>
		<path fill="#FFFFFF" d="M59.66,169.41c0-8.878,4.199-14.317,10.678-14.317c6.479,0,10.599,5.359,10.599,14.317
			c0,8.719-3.8,14.318-10.639,14.318C63.539,183.728,59.66,178.128,59.66,169.41z M77.457,169.41c0-6.959-2.359-11.438-7.119-11.438
			c-4.839,0-7.198,4.359-7.198,11.438c0,6.959,2.359,11.398,7.198,11.398C75.218,180.808,77.457,176.489,77.457,169.41z"/>
		<path fill="#FFFFFF" d="M84.46,169.41c0-8.878,4.199-14.317,10.678-14.317c6.479,0,10.599,5.359,10.599,14.317
			c0,8.719-3.8,14.318-10.639,14.318C88.339,183.728,84.46,178.128,84.46,169.41z M102.257,169.41
			c0-6.959-2.359-11.438-7.119-11.438c-4.839,0-7.198,4.359-7.198,11.438c0,6.959,2.359,11.398,7.198,11.398
			C100.018,180.808,102.257,176.489,102.257,169.41z"/>
		<path fill="#010101" d="M127.578,163.171h-5.999v-2.24c3.359-0.08,6.239-1.32,6.759-5.359h2.6v27.555h-3.359V163.171z"/>
		<path fill="#010101" d="M141.418,163.171h-5.999v-2.24c3.359-0.08,6.239-1.32,6.759-5.359h2.6v27.555h-3.359V163.171z"/>
		<path fill="#010101" d="M147.818,187.327h16.478v2.439h-16.478V187.327z"/>
		<path fill="#010101" d="M165.979,169.41c0-8.878,4.199-14.317,10.678-14.317c6.479,0,10.599,5.359,10.599,14.317
			c0,8.719-3.8,14.318-10.639,14.318C169.857,183.728,165.979,178.128,165.979,169.41z M183.775,169.41
			c0-6.959-2.359-11.438-7.119-11.438c-4.839,0-7.198,4.359-7.198,11.438c0,6.959,2.359,11.398,7.198,11.398
			C181.536,180.808,183.775,176.489,183.775,169.41z"/>
		<path fill="#010101" d="M202.977,176.409h-12.918v-3l13.558-17.957h2.64v18.277h4.519v2.68h-4.519v6.719h-3.279V176.409z
			 M193.298,173.729h9.679v-12.838h-0.08l-9.599,12.718V173.729z"/>
		<path fill="#010101" d="M211.578,187.327h16.478v2.439h-16.478V187.327z"/>
		<path fill="#010101" d="M235.336,163.171h-5.999v-2.24c3.359-0.08,6.239-1.32,6.759-5.359h2.6v27.555h-3.359V163.171z"/>
		<path fill="#010101" d="M258.375,158.812v-0.08h-15.638v-3h19.156v2.76c-5.599,4.919-11.117,13.757-11.678,24.636h-3.6
			C247.217,173.569,252.216,163.771,258.375,158.812z"/>
	</g>
</g>
</svg>
